<svg width="126" height="22" viewBox="0 0 126 22" fill="none" xmlns="http://www.w3.org/2000/svg">
<g id="Logo PLABS.ID Blac 2" clip-path="url(#clip0_656_2324)">
<path id="Vector" d="M15.7292 5.04474C15.6763 7.5274 13.5884 9.48652 11.1019 9.48652H6.64191V21.1646C6.64283 21.2201 6.6327 21.2751 6.6121 21.3266C6.5915 21.3781 6.56085 21.425 6.52193 21.4645C6.48301 21.504 6.4366 21.5354 6.38541 21.5569C6.33422 21.5783 6.27928 21.5893 6.22378 21.5893H4.03557C3.97949 21.5902 3.92378 21.5799 3.87178 21.5589C3.81978 21.5379 3.77254 21.5066 3.73288 21.467C3.69322 21.4274 3.66194 21.3802 3.64091 21.3282C3.61988 21.2763 3.60953 21.2206 3.61047 21.1646V9.48652H1.00553C0.895307 9.48438 0.790193 9.43968 0.712238 9.3618C0.634283 9.28392 0.589543 9.17891 0.587402 9.06879V6.88411C0.589587 6.7728 0.635293 6.66677 0.714739 6.5887C0.794186 6.51063 0.901063 6.46673 1.0125 6.46639H11.1354C11.9535 6.46639 12.6853 5.79943 12.7006 4.98209C12.7052 4.78035 12.6695 4.57972 12.5954 4.39197C12.5214 4.20423 12.4106 4.03315 12.2694 3.88879C12.1283 3.74442 11.9597 3.62968 11.7736 3.5513C11.5875 3.47292 11.3876 3.43247 11.1856 3.43234H7.06561C6.95417 3.432 6.84729 3.38809 6.76785 3.31003C6.6884 3.23196 6.6427 3.12593 6.64051 3.01462V0.835504C6.6405 0.780057 6.65155 0.725164 6.67299 0.674024C6.69444 0.622885 6.72586 0.576523 6.76543 0.537641C6.805 0.49876 6.85192 0.468137 6.90346 0.447559C6.95499 0.426981 7.01012 0.416859 7.06561 0.417783H11.1856C11.7897 0.41767 12.3878 0.537923 12.9449 0.771507C13.5019 1.00509 14.0068 1.34732 14.4299 1.77816C14.853 2.209 15.1858 2.71981 15.4089 3.2807C15.632 3.84159 15.7409 4.4413 15.7292 5.04474Z" fill="white" fill-opacity="0.5"/>
<path id="Vector_2" d="M14.2154 18.9924V21.1646C14.2163 21.22 14.2062 21.2751 14.1856 21.3266C14.165 21.378 14.1343 21.4249 14.0954 21.4645C14.0565 21.504 14.0101 21.5354 13.9589 21.5568C13.9077 21.5782 13.8528 21.5893 13.7973 21.5893H10.0954C10.0399 21.5893 9.98499 21.5782 9.9338 21.5568C9.88261 21.5354 9.8362 21.504 9.79728 21.4645C9.75836 21.4249 9.72771 21.378 9.70711 21.3266C9.68651 21.2751 9.67638 21.22 9.6773 21.1646V13.0134C9.6773 12.9026 9.72136 12.7964 9.79977 12.7181C9.87819 12.6397 9.98454 12.5957 10.0954 12.5957H12.2753C12.3862 12.5957 12.4925 12.6397 12.5709 12.7181C12.6494 12.7964 12.6934 12.9026 12.6934 13.0134V18.3422C12.6938 18.4021 12.7179 18.4595 12.7604 18.5017C12.803 18.544 12.8606 18.5677 12.9206 18.5677H13.7833C13.84 18.5658 13.8964 18.5755 13.9493 18.5961C14.0021 18.6166 14.0502 18.6477 14.0906 18.6875C14.131 18.7272 14.1629 18.7747 14.1844 18.8271C14.2058 18.8795 14.2164 18.9358 14.2154 18.9924Z" fill="white" fill-opacity="0.5"/>
<path id="Vector_3" d="M31.1914 5.55859H22.8804V19.051H25.9857V14.6747H30.8248C34.5671 14.6747 36.5922 13.1709 36.5922 10.1076C36.5922 7.38961 34.8946 5.55859 31.1914 5.55859ZM30.6506 12.3229H25.9815V7.94935H30.6506C32.4625 7.94935 33.4284 8.58568 33.4284 10.1076C33.4284 11.5919 32.4639 12.3229 30.6506 12.3229Z" fill="white" fill-opacity="0.5"/>
<path id="Vector_4" d="M50.3861 19.0496H38.521V5.55859H41.6472V16.6602H50.3861V19.0496Z" fill="white" fill-opacity="0.5"/>
<path id="Vector_5" d="M61.2286 5.55859H57.4096L51.1572 19.051H54.4563L55.6145 16.4054H63.0209L64.1583 19.051H67.4573L61.2286 5.55859ZM56.657 14.0383L59.3191 7.91176L61.9812 14.0383H56.657Z" fill="white" fill-opacity="0.5"/>
<path id="Vector_6" d="M80.3035 11.9957V11.8996C81.7697 11.4819 82.5795 10.6088 82.5795 9.02847C82.5795 6.31049 80.5739 5.55859 77.332 5.55859H68.8105V19.051H76.932C81.1579 19.051 83.0868 18.125 83.0868 15.0799C83.091 13.3449 82.0833 12.4204 80.3035 11.9957ZM71.9172 7.94935H77.4923C78.7467 7.94935 79.5969 8.36707 79.5969 9.52973C79.5969 10.6924 78.8428 11.1282 77.4923 11.1282H71.9172V7.94935ZM77.5689 16.6797H71.9172V13.338H77.5689C79.0923 13.338 79.923 13.7042 79.923 14.8404C79.923 15.9766 79.3627 16.6797 77.5689 16.6797Z" fill="white" fill-opacity="0.5"/>
<path id="Vector_7" d="M98.3861 14.8486C98.3861 17.7726 95.9735 19.3391 91.1706 19.3391C86.5015 19.3391 84.0513 17.5847 84.0513 14.8486H87.2918C87.3698 16.2549 88.9908 16.9678 91.4396 16.9678C94.0055 16.9678 95.0871 16.2939 95.0871 15.2719C95.0871 13.8795 92.9964 14.0187 89.3183 13.4033C85.6402 12.7878 84.475 11.6683 84.475 9.5477C84.475 7.33099 85.9802 5.28833 90.9392 5.28833C95.7045 5.28833 97.5554 7.09846 97.6293 9.49061H94.6188C94.5073 8.52707 93.3895 7.6582 90.896 7.6582C88.1183 7.6582 87.4618 8.4101 87.4618 9.32909C87.4618 10.6017 89.7002 10.6783 92.0724 11C95.8007 11.5333 98.3861 11.8354 98.3861 14.8486Z" fill="white" fill-opacity="0.5"/>
<path id="Vector_8" d="M102.977 17.7197C102.974 18.0392 102.875 18.3505 102.695 18.6144C102.515 18.8783 102.261 19.0831 101.964 19.2029C101.668 19.3227 101.342 19.3522 101.029 19.2877C100.716 19.2231 100.429 19.0675 100.204 18.8403C99.9789 18.6131 99.8263 18.3246 99.7652 18.011C99.7041 17.6973 99.7372 17.3727 99.8604 17.0778C99.9836 16.783 100.191 16.5311 100.458 16.354C100.724 16.1768 101.036 16.0823 101.356 16.0823C101.788 16.0849 102.202 16.2588 102.506 16.5658C102.81 16.8729 102.979 17.2879 102.977 17.7197Z" fill="white" fill-opacity="0.5"/>
<path id="Vector_9" d="M108.205 5.55859H105.099V19.0496H108.205V5.55859Z" fill="white" fill-opacity="0.5"/>
<path id="Vector_10" d="M117.042 5.55859H110.909V19.051H117.042C121.248 19.051 125.183 17.6823 125.183 12.3048C125.183 6.92733 121.248 5.55859 117.042 5.55859ZM116.732 16.6602H114.033V7.94935H116.732C119.953 7.94935 121.999 8.83632 121.999 12.3048C121.999 15.7733 119.953 16.6602 116.732 16.6602Z" fill="white" fill-opacity="0.5"/>
</g>
<defs>
<clipPath id="clip0_656_2324">
<rect width="125.439" height="22" fill="white" transform="translate(0.162109)"/>
</clipPath>
</defs>
</svg>
